<svg width="32" height="33" viewBox="0 0 32 33" fill="none" xmlns="http://www.w3.org/2000/svg">
<circle cx="16" cy="17" r="16" fill="#F1C40E"/>
<path d="M13.2153 17.36C14.1913 17.568 14.9753 18.056 15.5673 18.824C16.1593 19.576 16.4553 20.44 16.4553 21.416C16.4553 22.824 15.9593 23.944 14.9673 24.776C13.9913 25.592 12.6233 26 10.8633 26H3.01534V9.152H10.5993C12.3113 9.152 13.6473 9.544 14.6073 10.328C15.5833 11.112 16.0713 12.176 16.0713 13.52C16.0713 14.512 15.8073 15.336 15.2793 15.992C14.7673 16.648 14.0793 17.104 13.2153 17.36ZM7.11934 15.968H9.80734C10.4793 15.968 10.9913 15.824 11.3433 15.536C11.7113 15.232 11.8953 14.792 11.8953 14.216C11.8953 13.64 11.7113 13.2 11.3433 12.896C10.9913 12.592 10.4793 12.44 9.80734 12.44H7.11934V15.968ZM10.1433 22.688C10.8313 22.688 11.3593 22.536 11.7273 22.232C12.1113 21.912 12.3033 21.456 12.3033 20.864C12.3033 20.272 12.1033 19.808 11.7033 19.472C11.3193 19.136 10.7833 18.968 10.0953 18.968H7.11934V22.688H10.1433ZM29.8037 9.152V12.44H22.9397V15.992H28.0757V19.184H22.9397V26H18.8357V9.152H29.8037Z" fill="white"/>
</svg>
